<?xml version="1.0" encoding="UTF-8" standalone="no"?>
<svg
   viewBox="0 0 48 48"
   version="1.1"
   id="svg3"
   sodipodi:docname="car.svg"
   inkscape:version="1.4.2 (f4327f4, 2025-05-13)"
   width="48"
   height="48"
   xmlns:inkscape="http://www.inkscape.org/namespaces/inkscape"
   xmlns:sodipodi="http://sodipodi.sourceforge.net/DTD/sodipodi-0.dtd"
   xmlns="http://www.w3.org/2000/svg"
   xmlns:svg="http://www.w3.org/2000/svg">
  <defs
     id="defs3" />
  <sodipodi:namedview
     id="namedview3"
     pagecolor="#000000"
     bordercolor="#000000"
     borderopacity="0.25"
     inkscape:showpageshadow="2"
     inkscape:pageopacity="0.0"
     inkscape:pagecheckerboard="0"
     inkscape:deskcolor="#d1d1d1"
     inkscape:zoom="17.729167"
     inkscape:cx="23.971797"
     inkscape:cy="27.553466"
     inkscape:window-width="1920"
     inkscape:window-height="1111"
     inkscape:window-x="-9"
     inkscape:window-y="-9"
     inkscape:window-maximized="1"
     inkscape:current-layer="svg3" />
  <g
     id="g1"
     transform="matrix(2,0,0,2,-1.6666663,-0.53)">
    <circle
       fill="#26a69a"
       cx="8.4333334"
       cy="13.3925"
       r="1.1"
       id="circle1"
       style="stroke-width:0.55" />
    <circle
       fill="#26a69a"
       cx="17.233334"
       cy="13.3925"
       r="1.1"
       id="circle2"
       style="stroke-width:0.55" />
    <path
       fill="#26a69a"
       d="m 22.733333,8.9924999 h -2.09 C 20.368333,6.5175 18.278333,4.5375 15.693333,4.5375 H 9.9733332 c -2.585,0 -4.675,1.98 -4.9499999,4.4549999 h -2.09 c -0.605,0 -1.1,0.495 -1.1,1.1000001 0,0.605 0.495,1.099999 1.1,1.099999 h 1.32 c -0.165,0.33 -0.22,0.715001 -0.22,1.100001 v 5.72 c 0.1100004,1.099999 1.045,1.98 2.2,1.98 1.1549999,0 2.09,-0.880001 2.1999999,-1.98 V 17.792499 H 17.233333 V 18.0125 c 0.110004,1.099999 1.045,1.98 2.2,1.98 1.155,0 2.09,-0.880001 2.2,-1.98 v -5.72 c 0,-0.385 -0.055,-0.770001 -0.165,-1.100001 h 1.265 c 0.605,0 1.1,-0.494999 1.1,-1.099999 0,-0.6050001 -0.495,-1.1000001 -1.1,-1.1000001 z m -12.7599998,-2.255 h 5.7749998 c 1.32,0 2.475,0.935 2.695,2.255 H 7.2233332 c 0.2750001,-1.32 1.375,-2.255 2.75,-2.255 z M 7.3333333,15.5925 c -0.6050001,0 -1.1,-0.495 -1.1,-1.100001 V 12.2925 c 0,-0.605001 0.4949999,-1.100001 1.1,-1.100001 H 18.333333 c 0.605,0 1.1,0.495 1.1,1.100001 v 2.199999 c 0,0.605001 -0.495,1.100001 -1.1,1.100001 z"
       id="path2"
       style="stroke-width:0.55" />
  </g>
  <path
     d="M 0,0 H 22 V 22 H 0 Z"
     fill="none"
     id="path3"
     style="stroke-width:0.458333" />
</svg>
