<?xml version="1.0" encoding="UTF-8" standalone="no"?>
<svg
   data-v-5dfbbcb8=""
   style="display:block"
   viewBox="0 0 48 48"
   version="1.1"
   id="svg1"
   sodipodi:docname="charger_colored.svg"
   width="48"
   height="48"
   inkscape:version="1.4.2 (f4327f4, 2025-05-13)"
   xmlns:inkscape="http://www.inkscape.org/namespaces/inkscape"
   xmlns:sodipodi="http://sodipodi.sourceforge.net/DTD/sodipodi-0.dtd"
   xmlns="http://www.w3.org/2000/svg"
   xmlns:svg="http://www.w3.org/2000/svg">
  <defs
     id="defs1" />
  <sodipodi:namedview
     id="namedview1"
     pagecolor="#000000"
     bordercolor="#000000"
     borderopacity="0.25"
     inkscape:showpageshadow="2"
     inkscape:pageopacity="0.0"
     inkscape:pagecheckerboard="0"
     inkscape:deskcolor="#d1d1d1"
     inkscape:zoom="8.8638134"
     inkscape:cx="11.958736"
     inkscape:cy="10.435689"
     inkscape:window-width="1920"
     inkscape:window-height="1111"
     inkscape:window-x="-9"
     inkscape:window-y="-9"
     inkscape:window-maximized="1"
     inkscape:current-layer="svg1" />
  <path
     fill="currentColor"
     d="M 10.111111,39.555556 H 23.444445 V 8.4444444 H 10.111111 Z m 4.444445,-2.222223 8.888889,-15.555555 H 19 V 10.666667 l -8.888889,16.666666 h 4.444445 z M 5.6666665,44 V 8.4444444 q 0,-1.8333333 1.3066667,-3.14 Q 8.2777776,4 10.111111,4 h 13.333334 q 1.833333,0 3.14,1.3044444 1.304444,1.3066667 1.304444,3.14 V 24 h 2.222222 q 1.833334,0 3.14,1.304444 1.304444,1.306667 1.304444,3.14 v 10 q 0,0.944445 0.64,1.582223 0.637778,0.64 1.582222,0.64 0.944445,0 1.582222,-0.64 Q 39,39.388889 39,38.444444 v -16 q -0.5,0.277778 -1.055555,0.36 -0.555556,0.08444 -1.166667,0.08444 -2.333333,0 -3.944444,-1.611111 -1.611111,-1.611111 -1.611111,-3.944445 0,-1.777777 0.973333,-3.195555 0.971111,-1.415551 2.582221,-2.026662 l -4.666666,-4.6666666 2.333334,-2.3333333 8.222222,7.9999999 q 0.833333,0.833333 1.248888,1.944445 0.417778,1.111111 0.417778,2.277777 v 21.111111 q 0,2.333334 -1.611111,3.944445 Q 39.11111,44 36.777777,44 34.444445,44 32.833334,42.388889 31.222222,40.777778 31.222222,38.444444 V 27.333333 H 27.888888 V 44 Z M 23.444445,39.555556 H 10.111111 Z m 13.333332,-20 q 0.944445,0 1.582222,-0.64 Q 39,18.277778 39,17.333333 q 0,-0.944444 -0.640001,-1.584444 -0.637777,-0.637778 -1.582222,-0.637778 -0.944443,0 -1.582222,0.637778 -0.64,0.64 -0.64,1.584444 0,0.944445 0.64,1.582223 0.637778,0.64 1.582222,0.64 z"
     id="path1"
     style="fill:#26a69a;fill-opacity:1;stroke-width:2.22222" />
</svg>
