<?xml version="1.0" encoding="UTF-8" standalone="no"?>
<svg
   data-v-9fe234fd=""
   data-v-cf9344ed=""
   width="48"
   height="48"
   viewBox="0 0 48 48"
   class="icon icon--s me-2 flex-shrink-0"
   role="img"
   aria-label="device"
   version="1.1"
   id="svg1"
   sodipodi:docname="device.svg"
   inkscape:version="1.4.2 (f4327f4, 2025-05-13)"
   xmlns:inkscape="http://www.inkscape.org/namespaces/inkscape"
   xmlns:sodipodi="http://sodipodi.sourceforge.net/DTD/sodipodi-0.dtd"
   xmlns="http://www.w3.org/2000/svg"
   xmlns:svg="http://www.w3.org/2000/svg">
  <defs
     id="defs1" />
  <sodipodi:namedview
     id="namedview1"
     pagecolor="#000000"
     bordercolor="#000000"
     borderopacity="0.25"
     inkscape:showpageshadow="2"
     inkscape:pageopacity="0.0"
     inkscape:pagecheckerboard="0"
     inkscape:deskcolor="#d1d1d1"
     inkscape:zoom="18.99"
     inkscape:cx="11.979989"
     inkscape:cy="21.827278"
     inkscape:window-width="1920"
     inkscape:window-height="1111"
     inkscape:window-x="-9"
     inkscape:window-y="-9"
     inkscape:window-maximized="1"
     inkscape:current-layer="svg1" />
  <path
     fill="currentColor"
     d="M 8,42 Q 5.5,42 3.75,40.25 2,38.5 2,36 V 12 Q 2,9.5 3.75,7.75 5.5,6 8,6 H 24 Q 26.5,6 28.25,7.75 30,9.5 30,12 v 12.6 h 2 q 1.65,0 2.826,1.176 Q 36.002,26.952 36,28.6 V 35 q 0,0.4 0.3,0.7 0.3,0.3 0.7,0.3 0.4,0 0.7,-0.3 Q 38,35.4 38,35 V 22 Q 36.35,22 35.176,20.826 34.002,19.652 34,18 v -6 h 2 V 8 h 3 v 4 h 2 V 8 h 3 v 4 h 2 v 6 q 0,1.65 -1.174,2.826 Q 43.652,22.002 42,22 v 12.8 q 0,2.1 -1.45,3.55 Q 39.1,39.8 37,39.8 34.9,39.8 33.45,38.35 32,36.9 32,34.8 V 28.4 H 30 V 34 q 0,3.3 -2.35,5.65 Q 25.3,42 22,42 Z m 0,-4 h 14 q 1.65,0 2.826,-1.174 Q 26.002,35.652 26,34 25.998,32.348 24.826,31.176 23.654,30.004 22,30 h -9 q -0.4,0 -0.7,0.3 -0.3,0.3 -0.3,0.7 0,0.4 0.3,0.7 0.3,0.3 0.7,0.3 h 9 q 0.85,0 1.426,0.576 Q 24.002,33.152 24,34 23.998,34.848 23.424,35.426 22.85,36.004 22,36 H 13 Q 10.9,36 9.45,34.55 8,33.1 8,31 8,28.9 9.45,27.45 10.9,26 13,26 h 9 q 1.05,0 2.076,0.3 1.026,0.3 1.924,0.9 V 12 Q 26,11.15 25.424,10.576 24.848,10.002 24,10 H 8 Q 7.15,10 6.576,10.576 6.002,11.152 6,12 V 36 Q 6,36.85 6.576,37.426 7.152,38.002 8,38 m 0,0 H 22 6 Z"
     id="path1"
     style="fill:#ab47bc;fill-opacity:1;stroke-width:2" />
</svg>
