<?xml version="1.0" encoding="UTF-8" standalone="no"?>
<svg
   viewBox="0 0 48 48"
   version="1.1"
   id="svg2"
   sodipodi:docname="grid.svg"
   inkscape:version="1.4.2 (f4327f4, 2025-05-13)"
   xmlns:inkscape="http://www.inkscape.org/namespaces/inkscape"
   xmlns:sodipodi="http://sodipodi.sourceforge.net/DTD/sodipodi-0.dtd"
   xmlns="http://www.w3.org/2000/svg"
   xmlns:svg="http://www.w3.org/2000/svg">
  <defs
     id="defs2" />
  <sodipodi:namedview
     id="namedview2"
     pagecolor="#000000"
     bordercolor="#000000"
     borderopacity="0.25"
     inkscape:showpageshadow="2"
     inkscape:pageopacity="0.0"
     inkscape:pagecheckerboard="0"
     inkscape:deskcolor="#d1d1d1"
     inkscape:zoom="17.729167"
     inkscape:cx="23.971797"
     inkscape:cy="24"
     inkscape:window-width="1920"
     inkscape:window-height="1111"
     inkscape:window-x="-9"
     inkscape:window-y="-9"
     inkscape:window-maximized="1"
     inkscape:current-layer="svg2" />
  <path
     d="M0 0h48v48H0z"
     fill="none"
     id="path1" />
  <path
     fill="white"
     d="M43.109 14.336l-12-8a1.673 1.673 0 00-.151-.08 1.811 1.811 0 00-.19-.1 1.926 1.926 0 00-.255-.079c-.04-.011-.077-.027-.118-.035A2 2 0 0029.981 6h-12a2.012 2.012 0 00-.378.039c-.05.01-.1.029-.145.042a1.421 1.421 0 00-.49.211c-.027.016-.055.025-.081.043h-.008L4.891 14.336A2 2 0 006 18h10v5.528L8.211 39.106a2 2 0 002.649 2.7L24 35.549l13.14 6.258a2 2 0 002.649-2.7L32 23.528V18h10a2 2 0 001.109-3.664zM20 10h8v4h-8zm-7.394 4L16 11.738V14zm16.158 12l1.151 2.3L24 31.119 18.085 28.3l1.151-2.3zm-14.375 9.7l1.911-3.819 3.052 1.453zm14.263-2.362l3.048-1.457 1.911 3.819zM28 22h-8v-4h8zm4-8v-2.263L35.4 14z"
     id="path2"
     style="fill:#ffffff;fill-opacity:1" />
</svg>
