<?xml version="1.0" encoding="UTF-8" standalone="no"?>
<svg
   data-v-9fe234fd=""
   data-v-0b1a5efb=""
   width="36"
   height="48"
   viewBox="0 0 36 48"
   class="icon icon--s"
   role="img"
   aria-label="heater"
   version="1.1"
   id="svg1"
   sodipodi:docname="heater.svg"
   inkscape:version="1.4.2 (f4327f4, 2025-05-13)"
   xmlns:inkscape="http://www.inkscape.org/namespaces/inkscape"
   xmlns:sodipodi="http://sodipodi.sourceforge.net/DTD/sodipodi-0.dtd"
   xmlns="http://www.w3.org/2000/svg"
   xmlns:svg="http://www.w3.org/2000/svg">
  <defs
     id="defs1" />
  <sodipodi:namedview
     id="namedview1"
     pagecolor="#000000"
     bordercolor="#000000"
     borderopacity="0.25"
     inkscape:showpageshadow="2"
     inkscape:pageopacity="0.0"
     inkscape:pagecheckerboard="0"
     inkscape:deskcolor="#d1d1d1"
     inkscape:zoom="12.53"
     inkscape:cx="11.971269"
     inkscape:cy="12.011173"
     inkscape:window-width="1920"
     inkscape:window-height="1111"
     inkscape:window-x="-9"
     inkscape:window-y="-9"
     inkscape:window-maximized="1"
     inkscape:current-layer="svg1" />
  <path
     fill="currentColor"
     d="m 18,42.172507 q -6.7,0 -11.35,-4.65 -4.65,-4.65 -4.65,-11.35 0,-5.65 3.35,-10.85 3.35,-5.2 9.2,-9.1 1.1,-0.75 2.276,-0.076 1.174,0.676 1.174,2.026 v 2.6 q 0,1.7 1.176,2.85 1.174,1.15 2.874,1.15 0.85,0 1.626,-0.374 0.774,-0.376 1.374,-1.076 0.4,-0.5 1.026,-0.626 0.624,-0.124 1.174,0.276 3.15,2.25 4.95,5.75 1.8,3.5 1.8,7.45 0,6.7 -4.65,11.35 -4.65,4.65 -11.35,4.65 z m -12,-16 q 0,2.6 1.05,4.924 1.05,2.326 3,4.076 -0.05,-0.25 -0.05,-0.45 v -0.45 q 0,-1.6 0.6,-3 0.6,-1.4 1.75,-2.55 l 5.65,-5.55 5.65,5.55 q 1.15,1.15 1.75,2.55 0.6,1.4 0.6,3 v 0.45 q 0,0.2 -0.05,0.45 1.95,-1.75 3,-4.076 1.05,-2.324 1.05,-4.924 0,-2.5 -0.924,-4.726 -0.926,-2.224 -2.676,-3.974 -1,0.65 -2.1,0.974 -1.1,0.326 -2.25,0.326 -3.1,0 -5.374,-2.05 -2.276,-2.05 -2.626,-5.05 -3.9,3.3 -5.974,7.024 -2.076,3.726 -2.076,7.476 z m 12,2.6 -2.85,2.8 q -0.55,0.55 -0.85,1.25 -0.3,0.7 -0.3,1.45 0,1.6 1.176,2.75 1.174,1.15 2.824,1.15 1.65,0 2.826,-1.15 1.174,-1.15 1.174,-2.75 0,-0.8 -0.3,-1.476 -0.3,-0.674 -0.85,-1.224 z"
     id="path1"
     style="fill:#ef5350;fill-opacity:1;stroke-width:2" />
</svg>
