<?xml version="1.0" encoding="UTF-8" standalone="no"?>
<svg
   viewBox="0 0 30 48"
   version="1.1"
   id="svg3"
   sodipodi:docname="battery_onequarter.svg"
   width="30"
   height="48"
   inkscape:version="1.4.2 (f4327f4, 2025-05-13)"
   xmlns:inkscape="http://www.inkscape.org/namespaces/inkscape"
   xmlns:sodipodi="http://sodipodi.sourceforge.net/DTD/sodipodi-0.dtd"
   xmlns="http://www.w3.org/2000/svg"
   xmlns:svg="http://www.w3.org/2000/svg">
  <defs
     id="defs3" />
  <sodipodi:namedview
     id="namedview3"
     pagecolor="#000000"
     bordercolor="#000000"
     borderopacity="0.25"
     inkscape:showpageshadow="2"
     inkscape:pageopacity="0.0"
     inkscape:pagecheckerboard="0"
     inkscape:deskcolor="#d1d1d1"
     inkscape:zoom="17.729167"
     inkscape:cx="23.971798"
     inkscape:cy="24"
     inkscape:window-width="1920"
     inkscape:window-height="1111"
     inkscape:window-x="-9"
     inkscape:window-y="-9"
     inkscape:window-maximized="1"
     inkscape:current-layer="svg3" />
  <style
     id="style1" />
  <g
     id="Your_Icons">
    <path
       fill="#66bb6a"
       d="m 26,9.996 h -3 v -4 a 2,2 0 0 0 -2,-2 H 9 a 2,2 0 0 0 -2,2 v 4 H 4 a 2,2 0 0 0 -2,2 v 30 a 2,2 0 0 0 2,2 h 22 a 2,2 0 0 0 2,-2 v -30 a 2,2 0 0 0 -2,-2 z m -15,-2 h 8 v 2 h -8 z m 13,32 H 6 v -26 h 18 z"
       id="path2" />
    <path
       fill="#66bb6a"
       d="M 21,36.996 H 9 v -6 h 12 v 12 z"
       id="path3" />
  </g>
</svg>
