<?xml version="1.0" encoding="UTF-8" standalone="no"?>
<svg
   version="1.1"
   x="0px"
   y="0px"
   viewBox="0 0 80.099998 80.099999"
   xml:space="preserve"
   id="svg2"
   sodipodi:docname="arrow-right.svg"
   width="80.099998"
   height="80.099998"
   inkscape:version="1.4.2 (f4327f4, 2025-05-13)"
   xmlns:inkscape="http://www.inkscape.org/namespaces/inkscape"
   xmlns:sodipodi="http://sodipodi.sourceforge.net/DTD/sodipodi-0.dtd"
   xmlns="http://www.w3.org/2000/svg"
   xmlns:svg="http://www.w3.org/2000/svg"><defs
     id="defs2" /><sodipodi:namedview
     id="namedview2"
     pagecolor="#000000"
     bordercolor="#000000"
     borderopacity="0.25"
     inkscape:showpageshadow="2"
     inkscape:pageopacity="0.0"
     inkscape:pagecheckerboard="0"
     inkscape:deskcolor="#d1d1d1"
     inkscape:zoom="6.808"
     inkscape:cx="39.952996"
     inkscape:cy="39.732667"
     inkscape:window-width="1920"
     inkscape:window-height="1111"
     inkscape:window-x="-9"
     inkscape:window-y="-9"
     inkscape:window-maximized="1"
     inkscape:current-layer="svg2" /><path
     d="m 80,39.651933 c 0,-0.1 0,-0.2 0,-0.3 0,-0.1 0,-0.2 -0.1,-0.3 0,-0.1 -0.1,-0.2 -0.1,-0.3 0,-0.1 -0.1,-0.2 -0.1,-0.3 0,-0.1 -0.1,-0.2 -0.1,-0.2 -0.1,-0.1 -0.1,-0.2 -0.2,-0.3 0,0 0,0 0,-0.1 0,0 -0.1,-0.1 -0.1,-0.1 -0.1,-0.1 -0.1,-0.1 -0.1,-0.1 l -28.2,-24.2 c -0.9,-0.7 -2,-0.9 -3.1,-0.5 -1,0.5 -1.7,1.5 -1.7,2.6 v 12.6 H 2.9 c -1.6,0 -2.9,1.3 -2.9,2.9 v 17.9 c 0,1.6 1.3,2.9 2.9,2.9 h 43.5 v 12.6 c 0,1.1 0.7,2.1 1.7,2.6 0.4,0.2 0.8,0.3 1.2,0.3 0.7,0 1.3,-0.2 1.9,-0.7 l 28,-24.4 c 0.1,0 0.1,-0.1 0.2,-0.2 0,0 0.1,-0.1 0.1,-0.1 0,0 0,-0.1 0,-0.1 0.1,-0.1 0.1,-0.2 0.2,-0.3 0,-0.1 0.1,-0.1 0.1,-0.2 0,-0.1 0.1,-0.2 0.1,-0.3 0,-0.1 0.1,-0.2 0.1,-0.3 0,-0.1 0,-0.2 0.1,-0.3 0,-0.1 0,-0.2 0,-0.3 0,-0.1 0,-0.2 0,-0.3 -0.1,0 -0.1,-0.1 -0.1,-0.2 z"
     id="path1"
     style="fill:#f0e7d5;fill-opacity:1;stroke:none;stroke-opacity:1" /></svg>
