<?xml version="1.0" encoding="UTF-8" standalone="no"?>
<svg
   version="1.1"
   x="0px"
   y="0px"
   viewBox="0 0 80.099998 80.099999"
   xml:space="preserve"
   id="svg2"
   sodipodi:docname="arrow-down.svg"
   width="80.099998"
   height="80.099998"
   inkscape:version="1.4.2 (f4327f4, 2025-05-13)"
   xmlns:inkscape="http://www.inkscape.org/namespaces/inkscape"
   xmlns:sodipodi="http://sodipodi.sourceforge.net/DTD/sodipodi-0.dtd"
   xmlns="http://www.w3.org/2000/svg"
   xmlns:svg="http://www.w3.org/2000/svg"><defs
     id="defs2" /><sodipodi:namedview
     id="namedview2"
     pagecolor="#000000"
     bordercolor="#000000"
     borderopacity="0.25"
     inkscape:showpageshadow="2"
     inkscape:pageopacity="0.0"
     inkscape:pagecheckerboard="0"
     inkscape:deskcolor="#d1d1d1"
     inkscape:zoom="6.808"
     inkscape:cx="27.173913"
     inkscape:cy="52.511751"
     inkscape:window-width="1920"
     inkscape:window-height="1111"
     inkscape:window-x="-9"
     inkscape:window-y="-9"
     inkscape:window-maximized="1"
     inkscape:current-layer="svg2" /><path
     d="m 40.448066,80 c 0.1,0 0.2,0 0.3,0 0.1,0 0.2,0 0.3,-0.1 0.1,0 0.2,-0.1 0.3,-0.1 0.1,0 0.2,-0.1 0.3,-0.1 0.1,0 0.2,-0.1 0.2,-0.1 0.1,-0.1 0.2,-0.1 0.3,-0.2 0,0 0,0 0.1,0 0,0 0.1,-0.1 0.1,-0.1 0.1,-0.1 0.1,-0.1 0.1,-0.1 L 66.648065,51 c 0.7,-0.9 0.9,-2 0.5,-3.1 -0.5,-1 -1.5,-1.7 -2.6,-1.7 H 51.948066 V 2.8999995 C 51.948066,1.3 50.648066,0 49.048066,0 h -17.9 c -1.6,0 -2.9,1.3 -2.9,2.8999995 V 46.4 h -12.6 c -1.1,0 -2.1,0.7 -2.6,1.7 -0.2,0.4 -0.3,0.8 -0.3,1.2 0,0.7 0.2,1.3 0.7,1.9 l 24.4,28 c 0,0.1 0.1,0.1 0.2,0.2 0,0 0.1,0.1 0.1,0.1 0,0 0.1,0 0.1,0 0.1,0.1 0.2,0.1 0.3,0.2 0.1,0 0.1,0.1 0.2,0.1 0.1,0 0.2,0.1 0.3,0.1 0.1,0 0.2,0.1 0.3,0.1 0.1,0 0.2,0 0.3,0.1 0.1,0 0.2,0 0.3,0 0.1,0 0.2,0 0.3,0 0,-0.1 0.1,-0.1 0.2,-0.1 z"
     id="path1"
     style="fill:#f0e7d5;fill-opacity:1;stroke:none;stroke-opacity:1" /></svg>
